<svg width="16" height="9" viewBox="0 0 16 9" fill="none" xmlns="http://www.w3.org/2000/svg">
<path d="M9.21245 0.643584C9.38854 0.475945 9.62286 0.383268 9.86597 0.385107C10.1091 0.386947 10.342 0.48316 10.5155 0.653444C10.689 0.823728 10.7896 1.05476 10.7961 1.2978C10.8025 1.54084 10.7142 1.77687 10.55 1.95608L5.56245 8.19358C5.47669 8.28596 5.37318 8.36009 5.25812 8.41154C5.14305 8.463 5.01879 8.49072 4.89277 8.49305C4.76674 8.49539 4.64154 8.47228 4.52465 8.42512C4.40776 8.37796 4.30158 8.30772 4.21245 8.21858L0.904953 4.91108C0.812844 4.82526 0.738966 4.72176 0.687726 4.60676C0.636486 4.49176 0.608934 4.36762 0.606713 4.24174C0.604492 4.11586 0.627648 3.99082 0.674799 3.87409C0.721951 3.75735 0.792131 3.65131 0.881155 3.56229C0.970178 3.47326 1.07622 3.40308 1.19296 3.35593C1.30969 3.30878 1.43473 3.28562 1.56061 3.28784C1.68648 3.29007 1.81063 3.31762 1.92563 3.36886C2.04062 3.4201 2.14413 3.49398 2.22995 3.58608L4.84745 6.20233L9.18745 0.671084C9.19524 0.661434 9.20359 0.652251 9.21245 0.643584ZM8.06245 7.06858L9.21245 8.21858C9.30156 8.30752 9.40766 8.37761 9.52443 8.42465C9.64121 8.4717 9.76626 8.49474 9.89213 8.49241C10.018 8.49007 10.1421 8.46241 10.2571 8.41107C10.372 8.35973 10.4755 8.28577 10.5612 8.19358L15.5512 1.95608C15.6408 1.86759 15.7117 1.76193 15.7596 1.64543C15.8075 1.52893 15.8315 1.40397 15.83 1.27801C15.8285 1.15205 15.8017 1.02769 15.7511 0.912332C15.7005 0.796978 15.6271 0.693005 15.5355 0.606621C15.4438 0.520237 15.3356 0.453214 15.2175 0.409554C15.0993 0.365895 14.9736 0.346494 14.8478 0.352511C14.7219 0.358527 14.5986 0.389839 14.4852 0.444574C14.3717 0.499309 14.2705 0.576346 14.1875 0.671084L9.8462 6.20233L9.23995 5.59483L8.0612 7.06858H8.06245Z" fill="#7BBCB0"/>
</svg>
