<svg width="250" height="50" viewBox="0 0 250 50" fill="none" xmlns="http://www.w3.org/2000/svg">
<path d="M25 0L31.6126 15.8986L48.7764 17.2746L35.6994 28.4764L39.6946 45.2254L25 36.25L10.3054 45.2254L14.3006 28.4764L1.22359 17.2746L18.3874 15.8986L25 0Z" fill="#FFA432"/>
<path d="M75 0L81.6126 15.8986L98.7764 17.2746L85.6994 28.4764L89.6946 45.2254L75 36.25L60.3054 45.2254L64.3006 28.4764L51.2236 17.2746L68.3874 15.8986L75 0Z" fill="#FFA432"/>
<path d="M125 0L131.613 15.8986L148.776 17.2746L135.699 28.4764L139.695 45.2254L125 36.25L110.305 45.2254L114.301 28.4764L101.224 17.2746L118.387 15.8986L125 0Z" fill="#FFA432"/>
<path d="M175 0L181.613 15.8986L198.776 17.2746L185.699 28.4764L189.695 45.2254L175 36.25L160.305 45.2254L164.301 28.4764L151.224 17.2746L168.387 15.8986L175 0Z" fill="#FFA432"/>
<path d="M225 0L231.613 15.8986L248.776 17.2746L235.699 28.4764L239.695 45.2254L225 36.25L210.305 45.2254L214.301 28.4764L201.224 17.2746L218.387 15.8986L225 0Z" fill="#CFD9DE"/>
</svg>
